<svg xmlns="http://www.w3.org/2000/svg" width="326" height="89" fill="none"><path fill="#23332D" d="m34.645 81.433-10.524.073L.403 20.42l12.25-.085 5.8 15.229 21.393-.15 5.5-15.307 12.25-.085-22.95 61.41ZM20.667 43.917l8.622 24.009 8.63-24.129-17.252.12ZM90.972 46.226c-3.508.057-6.642.747-9.403 2.07-2.76 1.265-4.744 3.192-5.952 5.78v27.346h-11.56V36.219h10.611v9.662a19.534 19.534 0 0 1 2.847-4.141 20.998 20.998 0 0 1 3.537-3.278c1.265-.92 2.53-1.61 3.795-2.07 1.323-.518 2.588-.777 3.796-.777h1.38c.345 0 .662.029.95.086v10.525Zm36.121 32.867c-1.553.69-3.451 1.38-5.694 2.07-2.242.69-4.6 1.035-7.073 1.035-1.611 0-3.135-.201-4.572-.604a10.807 10.807 0 0 1-3.71-1.897c-1.035-.92-1.869-2.07-2.501-3.451-.633-1.438-.949-3.163-.949-5.176V45.104h-5.953V36.22h5.953V21.554h11.559v14.665h9.489v8.885h-9.489v22.084c0 1.61.403 2.76 1.208 3.45.863.633 1.898.95 3.105.95a10.63 10.63 0 0 0 3.537-.604 52.748 52.748 0 0 0 2.761-1.035l2.329 9.144Zm28.927-58.747h10.956l6.901 20.272 6.901-20.272h11.042L181.382 48.21l7.764 19.582 17.339-47.618h12.94l-24.931 61.248h-10.006l-10.611-25.707-10.611 25.707H153.26l-24.759-61.248h12.768l17.425 47.618 7.592-19.582-10.266-27.864Zm86.548 61.938c-3.623 0-6.901-.603-9.834-1.811-2.933-1.265-5.435-2.962-7.505-5.09-2.07-2.128-3.681-4.6-4.831-7.418-1.092-2.819-1.639-5.78-1.639-8.886 0-3.22.547-6.24 1.639-9.058 1.093-2.875 2.674-5.377 4.745-7.505 2.07-2.185 4.572-3.91 7.505-5.176 2.99-1.265 6.326-1.898 10.007-1.898 3.68 0 6.958.633 9.834 1.898 2.933 1.266 5.406 2.962 7.419 5.09a20.803 20.803 0 0 1 4.658 7.419 24.123 24.123 0 0 1 1.639 8.799c0 .747-.029 1.466-.086 2.156 0 .69-.058 1.266-.173 1.726h-34.937c.172 1.783.604 3.364 1.294 4.744.69 1.38 1.581 2.56 2.674 3.537a11.65 11.65 0 0 0 3.709 2.243c1.381.518 2.818.776 4.314.776 2.3 0 4.457-.546 6.47-1.638 2.07-1.15 3.479-2.646 4.227-4.486l9.92 2.76c-1.668 3.45-4.342 6.298-8.023 8.54-3.623 2.186-7.965 3.278-13.026 3.278Zm11.732-27.26c-.287-3.392-1.552-6.095-3.795-8.108-2.186-2.07-4.86-3.106-8.023-3.106a11.32 11.32 0 0 0-4.399.863 10.874 10.874 0 0 0-3.537 2.243c-1.035.978-1.898 2.156-2.588 3.537-.633 1.38-1.007 2.904-1.122 4.572H254.3Zm47.242 27.26c-3.451 0-6.527-.776-9.23-2.329a17.01 17.01 0 0 1-6.384-6.383v7.85h-10.093V18.448h11.56v25.707c1.61-2.76 3.709-4.888 6.297-6.383 2.645-1.553 5.722-2.33 9.23-2.33 2.933 0 5.608.633 8.023 1.898a19.665 19.665 0 0 1 6.211 5.09c1.783 2.128 3.134 4.63 4.055 7.505.977 2.876 1.466 5.895 1.466 9.058 0 3.278-.546 6.326-1.639 9.144-1.035 2.818-2.502 5.291-4.4 7.419a21.171 21.171 0 0 1-6.728 4.917c-2.588 1.208-5.377 1.811-8.368 1.811Zm-3.192-9.834c1.841 0 3.537-.345 5.09-1.035 1.553-.748 2.875-1.725 3.968-2.933 1.093-1.208 1.927-2.617 2.502-4.227.632-1.61.949-3.335.949-5.176 0-1.84-.288-3.594-.863-5.262-.575-1.668-1.409-3.134-2.502-4.4a11.748 11.748 0 0 0-3.709-3.019c-1.438-.747-3.019-1.121-4.745-1.121-2.588 0-4.917.862-6.987 2.588-2.013 1.667-3.566 3.738-4.658 6.21V64.86c.402 1.15.977 2.185 1.725 3.106.805.92 1.696 1.725 2.674 2.415.978.633 2.042 1.15 3.192 1.553 1.15.345 2.272.517 3.364.517Z"/></svg>