<svg xmlns="http://www.w3.org/2000/svg" width="93" height="36" fill="none"><path fill="#23332D" d="m10.12 26.089-2.929.02L.593 9.114l3.408-.023 1.613 4.237 5.952-.042 1.53-4.259 3.409-.023-6.386 17.085ZM6.23 15.65l2.4 6.68 2.4-6.713-4.8.033ZM26.63 16.326c-.976.016-1.848.208-2.616.576-.768.352-1.32.888-1.656 1.608v7.608h-3.216V13.542h2.952v2.688c.224-.432.488-.816.792-1.152a5.84 5.84 0 0 1 .984-.912 4.307 4.307 0 0 1 1.056-.576c.368-.144.72-.216 1.056-.216h.384c.096 0 .184.008.264.024v2.928Zm10.05 9.144c-.433.192-.96.384-1.585.576a6.654 6.654 0 0 1-1.968.288c-.448 0-.872-.056-1.272-.168a3.006 3.006 0 0 1-1.032-.528 2.856 2.856 0 0 1-.696-.96c-.176-.4-.264-.88-.264-1.44v-7.224h-1.656v-2.472h1.656v-4.08h3.216v4.08h2.64v2.472h-2.64v6.144c0 .448.112.768.336.96.24.176.528.264.864.264.336 0 .664-.056.984-.168.32-.112.576-.208.768-.288l.648 2.544Zm8.047-16.344h3.048l1.92 5.64 1.92-5.64h3.072l-2.904 7.752 2.16 5.448 4.824-13.248h3.6l-6.936 17.04h-2.784l-2.952-7.152-2.952 7.152H43.96l-6.888-17.04h3.552l4.848 13.248 2.112-5.448-2.856-7.752Zm24.079 17.232c-1.008 0-1.92-.168-2.736-.504a6.425 6.425 0 0 1-2.088-1.416 6.393 6.393 0 0 1-1.344-2.064 6.778 6.778 0 0 1-.456-2.472c0-.896.152-1.736.456-2.52.304-.8.744-1.496 1.32-2.088a6.244 6.244 0 0 1 2.088-1.44c.832-.352 1.76-.528 2.784-.528 1.024 0 1.936.176 2.736.528a6.155 6.155 0 0 1 2.064 1.416 5.787 5.787 0 0 1 1.296 2.064c.304.784.456 1.6.456 2.448 0 .208-.008.408-.024.6 0 .192-.016.352-.048.48h-9.72c.048.496.168.936.36 1.32a3.24 3.24 0 0 0 1.776 1.608 3.39 3.39 0 0 0 1.2.216c.64 0 1.24-.152 1.8-.456.576-.32.968-.736 1.176-1.248l2.76.768c-.464.96-1.208 1.752-2.232 2.376-1.008.608-2.216.912-3.624.912Zm3.264-7.584c-.08-.944-.432-1.696-1.056-2.256-.608-.576-1.352-.864-2.232-.864-.432 0-.84.08-1.224.24a3.026 3.026 0 0 0-.984.624c-.288.272-.528.6-.72.984-.176.384-.28.808-.312 1.272h6.528Zm13.143 7.584c-.96 0-1.816-.216-2.568-.648a4.731 4.731 0 0 1-1.776-1.776v2.184h-2.808V8.598h3.216v7.152c.448-.768 1.032-1.36 1.752-1.776.736-.432 1.592-.648 2.568-.648.816 0 1.56.176 2.232.528a5.471 5.471 0 0 1 1.728 1.416 6.111 6.111 0 0 1 1.128 2.088c.272.8.408 1.64.408 2.52 0 .912-.152 1.76-.456 2.544a6.362 6.362 0 0 1-1.224 2.064 5.893 5.893 0 0 1-1.872 1.368 5.437 5.437 0 0 1-2.328.504Zm-.888-2.736c.512 0 .984-.096 1.416-.288.432-.208.8-.48 1.104-.816.304-.336.536-.728.696-1.176.176-.448.264-.928.264-1.44 0-.512-.08-1-.24-1.464a3.694 3.694 0 0 0-.696-1.224 3.27 3.27 0 0 0-1.032-.84c-.4-.208-.84-.312-1.32-.312-.72 0-1.368.24-1.944.72a4.648 4.648 0 0 0-1.296 1.728v3c.112.32.272.608.48.864.224.256.472.48.744.672.272.176.568.32.888.432.32.096.632.144.936.144Z"/></svg>