<svg xmlns="http://www.w3.org/2000/svg" width="138" height="36" fill="none"><path fill="#F5F5F5" d="m14.87 31.458-4.392.03L.581 5.998l5.111-.036 2.42 6.356 8.929-.063 2.295-6.388 5.112-.035-9.578 25.627ZM9.037 15.802l3.598 10.02 3.602-10.07-7.2.05ZM39.074 16.312c-1.464.024-2.772.312-3.924.864-1.152.528-1.98 1.332-2.484 2.412V31h-4.824V12.136h4.428v4.032a8.153 8.153 0 0 1 1.188-1.728 8.761 8.761 0 0 1 1.476-1.368 6.46 6.46 0 0 1 1.584-.864c.552-.216 1.08-.324 1.584-.324h.576c.144 0 .276.012.396.036v4.392Zm15.074 13.716c-.649.288-1.44.576-2.377.864a9.982 9.982 0 0 1-2.952.432 7.046 7.046 0 0 1-1.908-.252 4.51 4.51 0 0 1-1.547-.792 4.284 4.284 0 0 1-1.044-1.44c-.264-.6-.397-1.32-.397-2.16V15.844H41.44v-3.708h2.483v-6.12h4.825v6.12h3.96v3.708h-3.96v9.216c0 .672.168 1.152.504 1.44.36.264.791.396 1.295.396.505 0 .997-.084 1.477-.252.48-.168.864-.312 1.151-.432l.973 3.816ZM66.219 5.512h4.572l2.88 8.46 2.88-8.46h4.608L76.803 17.14l3.24 8.172L87.28 5.44h5.4L82.275 31H78.1l-4.428-10.728L69.243 31h-4.176L54.735 5.44h5.328l7.272 19.872 3.168-8.172L66.22 5.512Zm36.118 25.848c-1.512 0-2.88-.252-4.103-.756-1.224-.528-2.268-1.236-3.132-2.124a9.59 9.59 0 0 1-2.017-3.096 10.166 10.166 0 0 1-.683-3.708c0-1.344.227-2.604.683-3.78a9.041 9.041 0 0 1 1.98-3.132c.865-.912 1.909-1.632 3.133-2.16 1.248-.528 2.639-.792 4.175-.792s2.904.264 4.104.792c1.224.528 2.256 1.236 3.096 2.124a8.68 8.68 0 0 1 1.944 3.096c.456 1.176.684 2.4.684 3.672 0 .312-.012.612-.036.9 0 .288-.024.528-.072.72h-14.58c.072.744.252 1.404.54 1.98a4.858 4.858 0 0 0 2.663 2.412 5.085 5.085 0 0 0 1.801.324c.96 0 1.86-.228 2.7-.684.864-.48 1.452-1.104 1.764-1.872l4.14 1.152c-.696 1.44-1.812 2.628-3.348 3.564-1.512.912-3.324 1.368-5.436 1.368Zm4.896-11.376c-.12-1.416-.648-2.544-1.584-3.384-.912-.864-2.028-1.296-3.348-1.296-.648 0-1.26.12-1.836.36a4.543 4.543 0 0 0-1.475.936c-.432.408-.792.9-1.08 1.476a5.439 5.439 0 0 0-.468 1.908h9.791Zm19.715 11.376c-1.44 0-2.724-.324-3.852-.972a7.097 7.097 0 0 1-2.664-2.664V31h-4.212V4.72h4.824v10.728c.672-1.152 1.548-2.04 2.628-2.664 1.104-.648 2.388-.972 3.852-.972 1.224 0 2.34.264 3.348.792a8.206 8.206 0 0 1 2.592 2.124c.744.888 1.308 1.932 1.692 3.132.408 1.2.612 2.46.612 3.78 0 1.368-.228 2.64-.684 3.816a9.543 9.543 0 0 1-1.836 3.096 8.84 8.84 0 0 1-2.808 2.052 8.155 8.155 0 0 1-3.492.756Zm-1.332-4.104a5.17 5.17 0 0 0 2.124-.432c.648-.312 1.2-.72 1.656-1.224a5.21 5.21 0 0 0 1.044-1.764 5.854 5.854 0 0 0 .396-2.16c0-.768-.12-1.5-.36-2.196a5.54 5.54 0 0 0-1.044-1.836 4.905 4.905 0 0 0-1.548-1.26 4.227 4.227 0 0 0-1.98-.468c-1.08 0-2.052.36-2.916 1.08a6.972 6.972 0 0 0-1.944 2.592v4.5c.168.48.408.912.72 1.296.336.384.708.72 1.116 1.008.408.264.852.48 1.332.648.48.144.948.216 1.404.216Z"/></svg>